<svg xmlns="http://www.w3.org/2000/svg" viewBox="0 0 900 650" role="img" aria-label="Online English coaching illustration"><defs><linearGradient id="g" x1="0" y1="0" x2="1" y2="1"><stop offset="0" stop-color="#dff7ef"/><stop offset="1" stop-color="#fff3d7"/></linearGradient><filter id="s" x="-10%" y="-10%" width="120%" height="120%"><feDropShadow dx="0" dy="18" stdDeviation="18" flood-color="#123c69" flood-opacity=".16"/></filter></defs><rect width="900" height="650" rx="48" fill="url(#g)"/><circle cx="760" cy="90" r="80" fill="#d59b2d" opacity=".22"/><circle cx="120" cy="560" r="120" fill="#0f766e" opacity=".12"/><rect x="125" y="105" width="650" height="405" rx="34" fill="#fff" filter="url(#s)"/><rect x="168" y="150" width="564" height="54" rx="18" fill="#edf7f5"/><circle cx="204" cy="177" r="14" fill="#0f766e"/><rect x="234" y="164" width="210" height="16" rx="8" fill="#123c69" opacity=".75"/><rect x="168" y="242" width="250" height="150" rx="26" fill="#123c69"/><circle cx="293" cy="292" r="38" fill="#fff8ea"/><path d="M233 360c17-36 102-36 120 0" fill="none" stroke="#fff8ea" stroke-width="18" stroke-linecap="round"/><rect x="462" y="245" width="228" height="22" rx="11" fill="#123c69" opacity=".84"/><rect x="462" y="296" width="180" height="18" rx="9" fill="#5e7082" opacity=".45"/><rect x="462" y="334" width="230" height="18" rx="9" fill="#5e7082" opacity=".35"/><rect x="462" y="372" width="140" height="18" rx="9" fill="#5e7082" opacity=".30"/><rect x="312" y="445" width="276" height="82" rx="24" fill="#0f766e" filter="url(#s)"/><text x="450" y="497" text-anchor="middle" font-family="Inter,Arial" font-size="28" font-weight="800" fill="#fff">Speak with confidence</text></svg>